<?xml version="1.0" encoding="UTF-8"?>
<svg id="Ebene_1" data-name="Ebene 1" xmlns="http://www.w3.org/2000/svg" viewBox="0 0 349.23 339.2">
  <path d="M256.5,328.87c-22.51,14.23-48.14-36.46-58.53-58.06-6.58-13.69-11.73-26.84-16.73-42.16l-15.67,55.34c-4.2,14.84-10.13,28.64-18.18,41.55-6.76,10.84-18.22,17.35-27.79,11.41-17.3-10.74,1.21-70.61,8.28-94.15-12.5,10.06-24.62,18.92-37.29,28.09s-24.16,19.55-40.49,20.01c-6.27.18-11.1-3.46-12.62-9.44-6.64-26.27,38.34-63.7,59.56-81.22-22.31,3.93-43.65,7.49-65.96,8.35-15.62.61-32.67-1.35-30.96-16.29,3.49-30.49,61.98-35.81,91.13-37.86-22.79-18.55-61.71-52.96-67.28-79.68-1.3-6.23-.13-13.43,5.23-16.85,19.45-12.39,72.72,34.04,92.96,50.12-9.68-25.92-38.97-95.88-14.25-106.71,29.53-12.94,53.73,72.87,62.42,98.82,4.28-26.93,9.5-59.45,21.4-82.07,5.79-11.01,16.69-20.48,25.64-15.67,2.57,1.38,5.4,5.07,5.99,8.66,4.34,26.19-6.93,57.18-14.12,84.35,12.33-16.41,22.54-32.45,35.81-46.96,10.23-11.19,26.96-22.39,37.46-12.62,7.21,6.71.88,26.18-4.76,37.29-8.02,15.81-17.66,30.08-28.26,44.67,22.89-8.55,45.69-15.14,69.64-19.21,5.32-.9,11.44.6,14.81,4.24,12.13,13.1-13.98,33.36-28.67,42.69-16.64,10.57-34.6,16.48-54.32,22.32,24.64,5.93,48.87,12.88,71.86,23.88,13.56,6.48,28.35,16.09,26.2,29.84-.66,4.2-4.05,9.24-8.77,11.78-26.52,14.26-83.82-10.23-114.11-22.89,11.57,23.04,22.55,45.63,31.22,69.69,4.36,12.1,6.57,24.11,6.09,36.61-1.19,5.3-3.39,9.9-6.94,12.14ZM191.09,204.76c11.78-6.75,19.92-18.31,23.46-31.21,3.1-11.28.64-21.95-5.7-31.31-9.94-14.69-24.98-23.49-43.4-23.59-21.07-.12-39.78,15.4-44.04,36.2-1.93,9.42-1.15,19.54,2.99,27.98l3.31,6.76c7.52,15.33,40.73,28.15,63.37,15.18Z"/>
  <path d="M171.64,182.31c4.96-1.04,3.31-9,7.68-10.88,2.15-.92,6.38.16,6.74,2.18,1.17,6.52-2.31,12.02-6.4,15.42-4.75,3.94-11.02,5.03-17.01,3.39-7.97-2.19-14.1-7.81-15.72-16.35-.31-1.63,1.59-4.46,2.94-5.26s5.68-.41,6.33,1.04c1.7,6.93,7.93,12.03,15.43,10.45Z"/>
  <circle cx="150.71" cy="156.98" r="5.18"/>
  <circle cx="167.68" cy="165.04" r="5.18"/>
  <circle cx="185.13" cy="153.98" r="5.19"/>
</svg>